<?xml version="1.0" standalone="no"?>
<!DOCTYPE svg PUBLIC "-//W3C//DTD SVG 20010904//EN"
 "http://www.w3.org/TR/2001/REC-SVG-20010904/DTD/svg10.dtd">
<svg version="1.0" xmlns="http://www.w3.org/2000/svg"
 width="900.000000pt" height="900.000000pt" viewBox="0 0 900.000000 900.000000"
 preserveAspectRatio="xMidYMid meet">
<metadata>
Created by potrace 1.11, written by Peter Selinger 2001-2013
</metadata>
<g transform="translate(0.000000,900.000000) scale(0.100000,-0.100000)"
fill="#000000" stroke="none">
<path d="M2360 8078 c-30 -3 -80 -9 -110 -13 -256 -29 -523 -168 -645 -335
-87 -119 -102 -173 -105 -365 -5 -317 -5 -352 2 -420 10 -95 18 -157 23 -165
2 -3 6 -24 9 -46 49 -329 352 -1194 625 -1786 47 -102 86 -187 111 -243 33
-72 278 -562 338 -678 333 -630 684 -1150 964 -1429 176 -175 304 -249 416
-244 l50 3 -11 -26 c-6 -14 -19 -40 -29 -58 -84 -155 -210 -420 -210 -443 -2
-79 163 -187 294 -191 119 -4 123 -2 180 75 156 209 436 507 743 791 71 66
154 143 185 171 30 28 84 78 119 110 36 33 72 66 81 74 8 8 74 67 145 130 71
63 137 122 146 130 8 8 53 49 99 90 47 41 109 98 140 125 80 71 210 187 233
207 28 25 200 182 277 253 35 33 91 85 124 115 157 145 233 218 391 375 147
147 300 308 375 395 12 14 34 39 48 55 94 107 231 274 320 390 220 289 443
686 527 940 32 93 29 85 54 198 18 83 22 107 36 217 11 79 8 273 -4 340 -23
126 -68 218 -146 295 -136 136 -332 186 -700 180 -88 -2 -170 -6 -181 -8 -12
-3 -37 -8 -55 -11 -128 -20 -349 -85 -469 -138 -25 -11 -54 -24 -65 -28 -148
-59 -411 -193 -571 -290 -156 -95 -185 -114 -479 -319 -285 -198 -572 -391
-582 -391 -3 0 -14 -6 -22 -14 -22 -20 -113 -71 -196 -111 -73 -35 -158 -55
-197 -48 -30 6 -119 166 -328 589 -180 364 -247 485 -366 666 -159 241 -341
446 -519 584 -73 57 -219 150 -280 178 -67 31 -214 82 -260 90 -16 2 -52 9
-80 15 -114 22 -340 32 -445 19z m474 -478 c155 -32 298 -103 416 -205 263
-229 469 -534 659 -971 60 -139 255 -700 286 -824 3 -8 26 -89 54 -180 27 -91
70 -237 95 -325 63 -218 96 -303 129 -337 l29 -28 39 22 c41 23 110 92 194
193 28 33 52 62 55 65 3 3 30 34 60 70 30 36 57 67 60 70 3 3 55 64 115 135
111 131 130 153 265 299 113 123 376 385 455 454 345 301 672 512 1050 680 77
34 256 97 305 107 8 2 42 10 75 18 33 8 83 19 110 23 28 4 56 8 64 10 25 5
185 17 246 19 61 2 70 -1 178 -63 37 -22 65 -29 123 -34 l32 -2 -3 -73 c-4
-81 -27 -205 -57 -303 -60 -195 -215 -500 -371 -730 -61 -91 -105 -150 -239
-326 -36 -48 -136 -160 -233 -262 -172 -182 -252 -258 -590 -562 -82 -74 -152
-137 -155 -140 -3 -3 -52 -48 -110 -100 -58 -52 -107 -97 -110 -100 -3 -3 -50
-46 -105 -95 -55 -50 -102 -93 -105 -96 -3 -3 -57 -52 -120 -109 -63 -56 -140
-126 -170 -154 -46 -42 -166 -151 -266 -241 -51 -46 -190 -172 -213 -193 -14
-13 -62 -56 -106 -95 -43 -40 -104 -95 -135 -123 -30 -28 -84 -77 -120 -109
-36 -32 -110 -99 -164 -149 -54 -50 -107 -98 -116 -106 -24 -21 -168 -152
-204 -185 -22 -20 -36 -25 -65 -23 -34 3 -36 5 -41 43 -3 22 -22 90 -43 152
-35 104 -76 173 -152 259 -5 7 -18 22 -27 35 -10 13 -72 96 -139 184 -471 619
-542 715 -700 950 -112 166 -231 350 -253 390 -6 11 -48 82 -94 157 -45 76
-82 140 -82 143 0 2 -14 28 -31 57 -98 164 -292 584 -396 858 -70 181 -138
414 -169 575 -4 22 -9 47 -10 55 -4 17 -11 68 -19 133 -3 23 -8 53 -11 67 -7
39 -18 275 -17 380 0 52 1 150 2 217 l1 123 78 78 c122 124 289 209 447 228
28 4 51 8 53 9 8 7 215 -4 266 -15z"/>
</g>
</svg>
